<?xml version="1.0" standalone="no"?>
<!DOCTYPE svg PUBLIC "-//W3C//DTD SVG 20010904//EN"
 "http://www.w3.org/TR/2001/REC-SVG-20010904/DTD/svg10.dtd">
<svg version="1.0" xmlns="http://www.w3.org/2000/svg"
 width="1025.000000pt" height="1025.000000pt" viewBox="0 0 1025.000000 1025.000000"
 preserveAspectRatio="xMidYMid meet">
<metadata>
Created by potrace 1.11, written by Peter Selinger 2001-2013
</metadata>
<g transform="translate(0.000000,1025.000000) scale(0.100000,-0.100000)"
fill="#000000" stroke="none">
<path d="M2885 9789 c-1227 -252 -2233 -458 -2237 -459 -5 0 -8 -23 -8 -51 0
-73 197 -3627 210 -3789 70 -871 319 -1685 752 -2459 473 -847 1191 -1612
2018 -2153 171 -112 204 -131 1289 -754 l215 -123 30 18 c17 11 303 175 636
366 333 192 659 381 725 423 542 337 1058 786 1475 1282 794 945 1278 2089
1395 3297 14 147 228 3933 222 3939 -1 2 -1006 208 -2232 459 -1227 251 -2237
458 -2245 459 -8 2 -1018 -203 -2245 -455z m818 -647 c66 -16 91 -18 155 -10
216 26 636 6 899 -42 125 -23 116 -23 108 -10 -8 13 -2 13 83 -9 41 -11 81
-26 90 -34 10 -7 49 -22 87 -32 259 -67 623 -218 885 -367 53 -30 117 -60 143
-67 42 -12 197 -95 197 -106 0 -2 -19 2 -41 10 -23 8 -44 15 -46 15 -3 0 30
-25 73 -56 113 -81 224 -177 362 -313 182 -180 313 -354 407 -542 43 -85 45
-87 167 -176 102 -75 228 -182 321 -272 13 -13 16 -25 11 -50 l-7 -33 -56 54
c-87 84 -339 284 -347 275 -1 -1 7 -35 17 -76 47 -184 48 -349 3 -514 -13 -51
-27 -102 -30 -114 -5 -17 11 -41 70 -108 42 -48 76 -91 76 -96 0 -8 -40 -79
-45 -79 -1 0 -23 26 -48 58 -26 31 -60 72 -76 90 l-29 34 -36 -56 c-92 -144
-289 -307 -484 -401 -60 -28 -82 -44 -78 -55 2 -8 36 -88 75 -178 39 -89 71
-169 71 -176 0 -13 -107 -103 -114 -95 -2 2 -11 29 -21 59 -18 56 -133 351
-139 358 -2 1 -44 -8 -92 -22 -219 -62 -486 -91 -770 -84 l-191 6 -5 -430 c-3
-327 -7 -431 -17 -437 -16 -10 -181 -35 -187 -28 -3 3 2 88 10 189 14 169 25
332 41 614 l6 110 -138 23 c-266 43 -580 132 -851 243 -74 30 -128 46 -133 41
-5 -5 -99 -193 -208 -418 l-199 -409 82 -34 c255 -107 522 -198 776 -266 110
-30 434 -96 468 -96 13 0 20 -4 17 -10 -10 -16 -401 -12 -555 6 -334 38 -641
126 -953 273 -62 28 -106 55 -102 61 3 5 0 7 -7 5 -16 -7 -197 100 -322 190
-278 199 -542 467 -727 742 l-49 72 77 -75 c277 -271 570 -483 984 -711 l125
-69 75 140 c41 77 142 262 225 410 l151 270 -124 68 c-267 145 -494 310 -695
504 l-87 83 -158 -123 c-167 -130 -432 -354 -520 -439 -29 -28 -56 -48 -60
-44 -4 4 -26 40 -50 80 l-43 72 42 38 c124 110 522 413 668 508 l24 16 -51 64
c-160 202 -289 462 -325 655 -9 51 -15 64 -30 64 -28 0 -389 -122 -538 -183
-74 -30 -136 -54 -136 -53 -1 0 -4 29 -7 62 l-5 61 32 11 c17 6 103 36 191 67
88 31 228 76 310 100 l150 43 12 115 c20 198 73 344 178 486 l47 64 -143 -6
c-79 -4 -200 -13 -269 -22 -155 -19 -398 -64 -405 -76 -3 -4 -13 -6 -23 -3
-11 4 -13 3 -5 -3 8 -6 6 -14 -8 -32 -17 -20 -19 -21 -19 -5 1 11 7 45 14 76
17 68 27 79 191 190 187 127 437 237 676 298 114 29 108 24 -21 -19 -274 -92
-499 -215 -685 -377 l-30 -26 35 6 c255 47 437 66 619 66 l136 0 50 41 c176
146 442 271 683 320 34 7 62 16 62 19 0 11 -121 30 -270 43 -192 15 -144 27
95 22 138 -2 198 -8 258 -23z m-766 -38 c-3 -3 -12 -4 -19 -1 -8 3 -5 6 6 6
11 1 17 -2 13 -5z m-40 -10 c-3 -3 -12 -4 -19 -1 -8 3 -5 6 6 6 11 1 17 -2 13
-5z m4534 -1601 c13 -16 12 -17 -3 -4 -10 7 -18 15 -18 17 0 8 8 3 21 -13z
m128 -176 c44 -66 77 -125 74 -133 -3 -9 -25 20 -55 73 -28 49 -71 117 -96
153 -24 36 -35 56 -24 45 12 -11 57 -73 101 -138z"/>
<path d="M4080 9104 c-19 -2 -69 -7 -110 -10 -65 -6 -72 -8 -50 -17 100 -42
263 -130 360 -195 l115 -76 210 -2 c145 -1 238 -6 300 -17 50 -9 95 -17 102
-17 29 0 -66 250 -100 263 -23 9 -252 46 -352 57 -99 11 -420 21 -475 14z"/>
<path d="M3595 9025 c-204 -57 -349 -126 -498 -238 l-82 -62 50 -7 c28 -4 113
-14 190 -23 160 -19 294 -43 481 -87 l130 -31 46 35 c26 20 71 50 100 66 55
32 251 102 284 102 16 0 16 2 4 15 -8 8 -72 48 -143 89 -145 84 -359 176 -409
175 -18 0 -87 -15 -153 -34z"/>
<path d="M5074 8968 c12 -42 25 -112 31 -168 l6 -55 149 -48 c92 -30 206 -77
301 -124 144 -73 153 -76 183 -64 71 29 185 62 241 69 l60 8 -70 41 c-194 113
-457 228 -718 312 -182 59 -192 60 -183 29z"/>
<path d="M4554 8713 l-42 -4 111 -107 c129 -126 253 -267 361 -413 51 -69 61
-85 29 -49 -195 222 -318 344 -497 494 -66 56 -71 58 -112 52 -66 -9 -198 -63
-266 -109 -59 -40 -83 -67 -58 -67 22 0 319 -112 454 -172 142 -63 423 -203
440 -219 6 -5 -60 23 -145 62 -208 96 -387 166 -612 240 -217 71 -204 73 -257
-35 -29 -60 -60 -199 -47 -212 3 -3 114 -10 247 -15 132 -5 291 -13 353 -19
150 -14 434 -53 420 -57 -6 -2 -85 3 -175 13 -100 10 -294 18 -500 21 -289 5
-338 3 -338 -9 0 -58 72 -219 140 -309 l41 -56 162 64 c203 80 421 154 595
199 146 39 184 41 69 5 -190 -61 -500 -187 -682 -278 l-89 -45 64 -62 c36 -33
94 -82 130 -107 74 -52 229 -144 234 -138 1 2 49 72 106 154 111 160 358 495
365 495 3 0 -32 -60 -77 -132 -99 -162 -318 -539 -318 -549 0 -19 260 -108
390 -133 47 -9 95 -19 108 -22 20 -4 22 -1 22 41 0 74 -38 428 -65 599 -14 88
-25 165 -24 170 4 43 107 -430 139 -632 11 -70 22 -142 26 -161 l5 -34 167 6
c118 4 190 11 245 25 43 11 80 21 82 23 5 6 -154 227 -263 363 -97 123 -299
351 -370 420 -22 21 -44 36 -49 33 -5 -3 -9 2 -10 12 -1 10 6 17 17 17 10 0
16 -4 14 -8 -3 -4 80 -92 183 -195 191 -190 323 -337 462 -515 42 -54 83 -98
92 -98 19 0 121 61 174 104 22 19 55 54 72 79 l33 45 -138 90 c-176 115 -338
210 -532 311 -85 44 -152 81 -148 81 13 0 334 -152 452 -214 66 -36 181 -100
254 -144 l133 -80 11 26 c25 63 22 270 -5 306 -24 33 -437 126 -732 165 -126
17 -136 20 -60 15 208 -12 505 -53 680 -94 44 -10 81 -17 83 -15 7 6 -47 101
-90 160 -83 113 -296 305 -336 305 -42 -1 -287 -131 -472 -252 -97 -63 -101
-65 -55 -23 72 64 265 204 368 266 48 29 87 56 87 60 0 22 -354 174 -471 202
l-26 7 -8 -203 c-8 -207 -20 -370 -24 -307 -9 183 -22 361 -32 437 -13 104 0
92 -129 113 -74 12 -304 20 -366 13z m439 -640 c-7 -2 -21 -2 -30 0 -10 3 -4
5 12 5 17 0 24 -2 18 -5z m267 -88 c14 -8 21 -14 15 -14 -5 0 -21 6 -35 14
-14 8 -20 14 -15 14 6 0 21 -6 35 -14z"/>
<path d="M2902 8593 c-95 -126 -157 -297 -169 -465 -7 -103 -17 -97 119 -69
164 34 434 71 643 88 l202 17 6 75 c6 87 31 162 81 237 20 29 32 55 28 57 -9
6 -185 42 -297 61 -117 20 -332 43 -465 51 l-105 6 -43 -58z"/>
<path d="M6015 8499 c-38 -5 -106 -19 -149 -31 -76 -20 -78 -22 -59 -37 11 -9
56 -44 101 -79 147 -115 282 -272 351 -409 l32 -62 112 -37 c157 -52 331 -125
472 -197 66 -34 123 -64 128 -66 11 -4 -67 151 -111 219 -134 211 -381 462
-639 649 -82 59 -117 66 -238 50z"/>
<path d="M3595 8093 c-186 -18 -684 -106 -816 -143 l-36 -10 9 -52 c23 -124
91 -290 179 -436 50 -82 170 -242 178 -238 3 2 60 36 126 76 162 98 351 203
534 294 l150 76 -56 77 c-67 94 -119 200 -143 291 -17 66 -18 67 -51 68 -19 1
-52 -1 -74 -3z"/>
<path d="M6324 7792 c3 -15 11 -65 18 -112 11 -83 3 -153 -27 -246 -6 -19 11
-35 127 -121 174 -130 314 -247 469 -393 l127 -119 15 42 c39 104 50 172 50
302 0 138 -29 299 -59 330 -53 52 -421 231 -658 319 l-68 26 6 -28z"/>
<path d="M3819 7507 c-213 -123 -598 -371 -613 -396 -13 -20 256 -251 434
-373 171 -118 386 -236 401 -221 4 4 58 91 119 193 62 101 159 258 216 348 57
90 104 167 104 170 0 4 -41 29 -90 57 -114 63 -242 154 -336 239 -40 36 -77
66 -82 66 -5 0 -74 -37 -153 -83z"/>
<path d="M6251 7317 c-55 -80 -208 -198 -288 -222 -21 -6 -18 -13 66 -138 115
-173 221 -349 324 -541 l84 -156 84 41 c46 22 122 66 168 96 145 97 312 283
296 332 -13 43 -474 461 -667 605 l-36 27 -31 -44z"/>
<path d="M4546 7147 c-98 -172 -366 -688 -366 -705 0 -10 26 -21 215 -94 220
-84 511 -161 747 -196 l56 -9 7 110 c10 146 -4 738 -17 755 -6 6 -22 12 -36
12 -73 0 -371 83 -529 148 l-52 21 -25 -42z"/>
<path d="M5815 7043 c-100 -27 -243 -43 -388 -43 l-147 0 5 -22 c8 -39 34
-335 45 -518 15 -265 20 -323 25 -328 2 -2 57 -8 122 -13 146 -10 397 4 553
31 124 22 270 58 283 70 10 9 -99 238 -202 430 -81 149 -228 397 -239 403 -4
2 -29 -2 -57 -10z"/>
<path d="M3625 5329 c-4 -6 -5 -12 -2 -15 2 -3 7 2 10 11 7 17 1 20 -8 4z"/>
</g>
</svg>
